<?xml version="1.0" standalone="no"?>
<!DOCTYPE svg PUBLIC "-//W3C//DTD SVG 20010904//EN"
 "http://www.w3.org/TR/2001/REC-SVG-20010904/DTD/svg10.dtd">
<svg version="1.0" xmlns="http://www.w3.org/2000/svg"
 width="987.000000pt" height="1481.000000pt" viewBox="0 0 987.000000 1481.000000"
 preserveAspectRatio="xMidYMid meet">
<metadata>
Created by potrace 1.16, written by Peter Selinger 2001-2019
</metadata>
<g transform="translate(0.000000,1481.000000) scale(0.100000,-0.100000)"
fill="#000000" stroke="none">
<path d="M4428 14594 c-4 -4 -41 -6 -82 -5 -41 1 -77 -2 -80 -8 -7 -11 79 -23
134 -19 74 5 160 -2 160 -13 0 -8 -22 -10 -67 -7 -38 3 -81 1 -98 -4 -16 -5
-52 -10 -80 -13 -200 -16 -215 -17 -215 -6 0 6 -9 11 -21 11 -11 0 -17 4 -14
10 3 6 -1 7 -9 4 -23 -9 -20 -24 4 -24 11 0 20 -5 20 -11 0 -7 -11 -9 -29 -6
-15 3 -33 1 -38 -4 -6 -6 -21 -9 -34 -7 -22 3 -20 5 15 23 55 26 28 31 -31 5
-26 -11 -83 -32 -128 -45 -93 -28 -168 -54 -175 -62 -3 -3 15 -2 40 1 43 7 44
6 25 -9 -15 -12 -33 -15 -70 -12 -38 4 -65 -1 -112 -20 -35 -14 -61 -29 -58
-33 7 -12 -66 -53 -140 -81 -33 -12 -61 -26 -63 -30 -2 -5 -8 -9 -14 -9 -6 0
-34 -15 -63 -34 -28 -19 -63 -38 -78 -41 -14 -4 -39 -19 -54 -33 -15 -15 -34
-25 -40 -24 -7 2 -13 -1 -13 -7 0 -5 -16 -19 -36 -31 -21 -14 -33 -28 -30 -36
3 -9 -1 -14 -13 -14 -21 0 -56 -36 -66 -67 -3 -13 -11 -23 -17 -23 -13 0 -82
-53 -128 -100 -20 -19 -65 -63 -100 -97 -83 -80 -94 -93 -100 -117 -3 -11 -11
-21 -18 -24 -8 -2 -10 2 -5 13 5 15 3 16 -15 6 -23 -12 -30 -31 -11 -31 6 0
-5 -19 -25 -42 -51 -59 -56 -66 -56 -76 0 -4 -13 -21 -30 -37 -32 -31 -39 -51
-15 -41 25 9 18 -1 -39 -58 -31 -31 -64 -76 -77 -105 -12 -29 -31 -59 -43 -69
-30 -23 -42 -44 -22 -36 9 3 16 10 16 15 0 5 5 9 10 9 20 0 9 -26 -30 -70 -22
-25 -40 -51 -40 -57 0 -7 -16 -34 -36 -59 -26 -35 -32 -49 -23 -55 10 -6 5
-21 -19 -59 -17 -28 -46 -83 -63 -123 -18 -40 -38 -82 -46 -94 -8 -12 -11 -28
-7 -34 4 -7 3 -9 -3 -6 -6 4 -16 -7 -22 -25 -14 -39 -14 -51 0 -42 6 3 3 -9
-6 -27 -14 -26 -15 -37 -6 -52 8 -11 9 -23 3 -30 -5 -7 -12 -25 -16 -42 -7
-29 -7 -29 9 -10 16 19 16 19 12 -12 -2 -18 1 -33 6 -33 5 0 5 -14 1 -32 -7
-33 -12 -98 -7 -98 1 0 14 21 28 48 21 39 25 42 20 17 -3 -16 -7 -61 -10 -99
-2 -38 -9 -74 -14 -79 -6 -6 0 -19 17 -34 l27 -25 -33 -29 c-19 -17 -26 -29
-18 -29 8 0 16 6 19 13 2 6 8 8 13 4 4 -4 3 -16 -4 -27 -6 -10 -8 -21 -3 -24
4 -3 13 6 19 19 7 14 16 25 22 25 14 0 13 -13 -4 -35 -7 -10 -11 -26 -9 -36 4
-16 8 -14 29 9 18 21 23 23 24 10 0 -9 -4 -19 -9 -22 -5 -3 -11 -20 -14 -38
-3 -18 -7 -44 -10 -56 -5 -20 -4 -22 9 -11 26 21 26 3 -1 -29 -30 -36 -33 -72
-6 -72 24 0 37 -36 20 -56 -21 -25 0 -29 26 -4 26 24 30 20 15 -15 -6 -13 -9
-15 -9 -5 -1 8 -8 2 -16 -14 -12 -23 -13 -31 -3 -37 9 -6 9 -13 1 -32 -10 -21
-9 -26 4 -31 8 -4 22 -1 30 5 18 16 27 5 16 -18 -5 -10 -8 -29 -7 -41 1 -13
-7 -40 -16 -60 -21 -43 -18 -52 8 -29 18 17 42 23 42 11 0 -4 -8 -14 -18 -23
-13 -11 -18 -30 -18 -61 1 -39 4 -45 24 -48 30 -4 72 -44 72 -68 0 -11 -7 -28
-15 -38 -15 -20 -21 -61 -7 -53 9 7 9 -54 -1 -70 -5 -7 -4 -13 1 -13 5 0 17
18 27 40 22 50 35 43 35 -20 0 -27 4 -51 9 -54 5 -3 9 0 8 7 -2 71 19 53 28
-24 6 -52 5 -63 -9 -71 -9 -5 -16 -14 -16 -19 0 -6 3 -8 8 -6 4 3 7 -16 6 -41
0 -32 6 -56 20 -75 l21 -29 5 39 5 38 34 -67 c88 -177 189 -212 606 -212 338
1 519 25 637 85 22 11 42 19 43 17 2 -2 -11 -19 -29 -38 -18 -20 -38 -44 -44
-56 -6 -11 -36 -33 -67 -49 -55 -30 -59 -30 -208 -29 -159 0 -554 20 -597 29
-28 6 -56 -8 -46 -23 13 -21 119 -31 421 -37 171 -4 317 -7 325 -7 8 -1 37 2
65 5 47 5 54 10 128 88 69 73 131 159 261 361 20 31 36 61 36 66 0 6 4 12 8
14 5 2 27 30 49 63 49 73 67 89 114 104 39 13 105 6 129 -12 13 -10 40 -59 40
-72 0 -15 -20 -2 -21 13 0 14 -2 14 -8 -3 -5 -13 -3 -28 6 -42 8 -12 12 -27 8
-32 -3 -6 -1 -16 5 -23 6 -7 20 -26 30 -43 37 -58 119 -180 130 -193 6 -7 14
-28 17 -47 3 -19 10 -32 15 -29 5 3 18 -6 29 -20 11 -14 27 -26 35 -26 7 0 19
-9 26 -20 7 -11 18 -20 25 -20 20 0 73 -51 73 -71 0 -10 13 -31 30 -45 16 -15
33 -36 36 -48 4 -11 13 -26 20 -34 19 -18 18 -121 -1 -146 -8 -11 -15 -15 -15
-10 0 6 5 15 11 21 6 6 8 20 4 31 -6 20 -7 20 -23 4 -16 -15 -16 -18 -2 -24
13 -6 13 -7 -2 -7 -29 -2 -48 10 -48 29 0 28 -15 32 -35 10 -18 -19 -45 -17
-45 4 0 7 -14 13 -32 14 -18 0 -73 2 -123 5 -96 4 -157 -9 -205 -43 -15 -11
-47 -22 -71 -26 -24 -3 -50 -13 -56 -22 -10 -12 -13 -12 -13 -2 0 10 -4 9 -18
-3 -10 -10 -28 -17 -40 -17 -12 0 -22 -4 -22 -9 0 -5 -9 -11 -21 -14 -21 -6
-52 9 -126 57 -50 32 -114 50 -148 42 -15 -4 -25 -10 -21 -13 3 -3 -8 -15 -25
-25 -17 -11 -33 -27 -36 -38 -7 -25 -29 -32 -47 -15 -16 17 -26 19 -26 7 0
-15 80 -92 113 -108 38 -20 95 -14 136 15 16 12 49 24 73 27 40 6 49 2 108
-39 114 -78 156 -96 255 -105 110 -9 160 -2 210 32 26 18 42 23 49 16 13 -13
49 -13 41 0 -6 10 7 14 32 11 7 -1 33 7 57 19 25 11 58 20 74 20 32 0 88 25
99 44 5 7 18 19 31 25 13 7 21 18 19 24 -2 7 0 20 4 29 6 11 2 36 -12 72 -11
31 -18 60 -15 64 3 5 -1 18 -9 28 -8 10 -15 26 -15 35 0 9 -6 19 -14 22 -7 3
-16 16 -18 29 -3 13 -9 31 -13 40 -6 15 3 16 97 13 116 -5 158 7 87 24 -95 24
-119 32 -133 46 -8 8 -17 15 -20 15 -3 0 -18 8 -34 18 -28 16 -21 17 221 14
492 -7 782 49 866 167 29 41 58 107 70 162 8 37 41 282 41 312 0 4 6 7 14 7 8
0 17 6 19 13 3 7 6 5 6 -5 1 -15 5 -16 28 -7 39 14 225 19 308 7 78 -11 119
-29 129 -55 10 -26 7 -635 -4 -738 -5 -49 -17 -128 -26 -175 -8 -47 -18 -105
-21 -130 -3 -25 -9 -50 -14 -56 -5 -6 -6 -21 -1 -33 4 -12 4 -56 -1 -97 -9
-70 -6 -96 9 -81 6 6 9 28 18 155 6 66 29 111 58 112 25 0 50 43 50 85 0 42
15 45 80 16 24 -11 51 -22 61 -25 13 -4 16 -12 11 -33 -3 -16 -13 -33 -20 -39
-36 -29 4 -90 56 -86 16 1 31 -2 35 -8 6 -10 36 3 65 30 20 18 110 129 110
135 0 6 -52 -14 -66 -26 -16 -13 -101 -23 -107 -12 -8 12 14 37 43 49 19 9 30
27 43 66 9 30 17 62 17 71 0 10 4 17 9 17 13 0 34 105 29 142 -3 16 -1 31 3
34 5 3 5 13 0 22 -5 9 -15 37 -22 61 -7 24 -19 45 -26 48 -7 3 -13 11 -13 19
0 8 -11 14 -27 14 -52 1 -127 27 -141 48 -11 17 -11 25 1 48 14 26 15 26 21 7
6 -20 19 -24 89 -25 15 -1 27 -5 27 -9 0 -5 9 -9 21 -9 19 0 20 5 19 68 -2 90
9 152 27 152 25 0 83 -65 89 -101 9 -44 22 -61 44 -54 24 8 50 -21 50 -53 -1
-15 3 -47 8 -71 7 -33 6 -59 -4 -98 -8 -30 -14 -66 -14 -81 0 -16 -4 -32 -8
-37 -9 -10 -26 -67 -37 -117 -3 -16 -1 -28 5 -28 5 0 10 10 10 23 0 13 7 32
15 43 8 10 15 25 15 32 0 7 10 26 21 42 12 16 19 36 16 44 -4 9 4 28 16 43 23
29 34 48 69 114 29 55 23 194 -10 239 -12 16 -22 39 -22 50 0 12 -6 33 -14 48
-7 15 -16 40 -20 57 -7 29 -7 29 12 12 10 -10 27 -33 38 -52 19 -37 48 -57 37
-27 -4 9 -12 26 -20 37 -21 32 -17 48 13 42 18 -3 22 -1 15 6 -19 19 -12 29
15 23 23 -6 24 -5 14 14 -6 11 -8 35 -5 53 5 24 2 37 -9 46 -17 14 -23 46 -7
36 19 -11 23 17 5 36 -10 11 -12 19 -6 19 7 0 11 5 9 12 -1 7 5 13 13 13 17 1
15 23 -6 46 -8 8 -14 19 -14 22 0 12 35 8 48 -5 7 -7 12 -9 12 -5 0 3 -13 19
-29 36 -27 28 -28 29 -10 45 16 13 25 48 20 78 0 4 6 5 14 2 20 -8 19 1 -2 34
-17 26 -17 26 0 13 15 -12 17 -10 17 23 0 40 -1 40 35 26 24 -9 23 -6 -18 53
-48 68 -60 127 -26 127 22 0 29 20 15 43 -8 13 -8 20 3 26 8 6 9 11 3 15 -6 3
-10 15 -9 26 1 10 5 16 9 14 13 -8 9 10 -8 34 -9 13 -13 26 -9 30 3 3 10 0 14
-7 5 -7 14 -12 21 -9 10 3 10 7 -1 19 -8 8 -23 25 -34 38 l-20 24 37 -6 c35
-5 36 -5 19 12 -12 12 -17 32 -17 64 1 26 -2 47 -6 47 -4 0 -10 9 -13 20 -5
15 -12 19 -25 15 -14 -5 -18 -1 -17 15 2 24 0 24 38 4 42 -21 46 -12 10 26
-34 38 -37 88 -5 81 18 -3 18 -2 3 15 -9 11 -14 24 -12 31 2 6 -3 23 -13 37
-9 14 -12 26 -6 26 5 0 12 -7 16 -15 3 -8 12 -15 21 -15 21 0 19 13 -5 27 -10
7 -24 22 -30 33 -11 20 -10 20 24 6 20 -8 36 -13 36 -10 0 10 -28 34 -39 34
-22 0 -10 20 12 21 22 1 22 1 -2 8 -37 10 -50 37 -26 55 19 13 18 15 -18 59
-20 24 -33 47 -30 51 4 3 0 6 -9 6 -8 0 -23 10 -34 21 -10 12 -30 26 -44 31
-14 6 -20 12 -13 15 6 2 23 -3 37 -13 19 -12 26 -13 26 -4 0 9 6 8 18 -3 23
-21 33 -22 26 -2 -4 8 -1 15 5 15 6 0 11 -9 11 -20 0 -23 15 -27 23 -7 3 8
-11 30 -30 50 -19 20 -30 37 -24 37 5 0 13 -4 16 -10 3 -5 15 -10 27 -10 17 0
18 2 8 15 -7 8 -9 15 -4 15 5 0 -2 7 -14 16 -12 8 -22 22 -22 31 0 9 -3 13 -6
10 -4 -4 -19 2 -33 12 -14 10 -33 21 -41 24 -13 5 -12 6 1 6 9 1 22 7 28 15
10 11 8 16 -6 20 -24 8 -77 55 -70 62 3 3 15 1 26 -6 17 -9 21 -8 21 5 0 8 -3
14 -7 13 -14 -3 -64 14 -59 20 3 3 -2 11 -12 18 -15 12 -15 15 -2 24 12 7 8
10 -16 10 -33 0 -73 33 -55 45 6 3 11 2 11 -3 0 -10 44 -32 63 -32 7 0 -3 8
-21 17 -18 9 -39 28 -47 42 -20 36 -51 71 -64 71 -5 0 -14 8 -20 18 -5 9 -12
16 -15 15 -3 -2 -5 0 -3 5 1 4 14 7 30 7 28 0 35 9 16 20 -6 4 -8 13 -5 21 3
8 -1 17 -9 19 -26 8 -39 15 -70 34 -16 10 -37 16 -45 14 -12 -4 -13 -3 -1 5
11 8 9 12 -9 22 -18 10 -20 14 -9 21 11 7 9 10 -7 15 -12 3 -41 15 -64 27 -39
20 -46 29 -64 84 -12 34 -29 70 -38 80 -10 11 -18 25 -18 31 0 6 -25 37 -56
69 -30 32 -63 70 -72 86 -9 15 -23 27 -32 27 -8 0 -25 10 -36 23 -12 12 -36
30 -53 40 -26 15 -31 16 -31 3 0 -8 6 -17 13 -19 6 -3 7 -6 1 -6 -5 -1 -44 32
-85 72 -99 95 -147 137 -160 137 -6 0 -41 23 -77 52 -52 40 -74 52 -100 51
-19 -1 -42 6 -52 15 -42 39 -47 41 -59 29 -8 -8 -11 -6 -11 8 0 10 -3 16 -6
12 -3 -3 -37 10 -74 29 -37 19 -72 34 -77 34 -6 0 -16 6 -22 14 -7 8 -28 17
-49 20 -20 4 -59 14 -86 23 -37 12 -50 13 -56 3 -6 -9 -13 -9 -29 -1 -11 7
-21 16 -21 21 0 6 -5 10 -11 10 -6 0 -25 7 -42 14 -18 8 -75 27 -127 41 -165
45 -179 48 -195 35 -8 -6 -24 -9 -36 -5 -11 4 -37 7 -58 7 -20 0 -40 3 -46 8
-5 4 -32 11 -60 14 -27 4 -75 12 -105 17 -96 16 -155 21 -162 13z m86 -1106
c23 1 43 -4 48 -11 6 -9 10 -9 18 3 8 12 13 13 29 3 14 -9 28 -10 45 -3 31 11
147 2 204 -16 23 -8 52 -14 62 -14 11 0 19 -5 18 -12 -2 -7 25 -16 71 -24 47
-9 78 -19 87 -31 10 -13 16 -15 22 -6 4 7 14 10 22 8 35 -8 60 -18 60 -24 0
-12 61 -43 75 -37 8 3 17 -3 20 -15 5 -15 16 -19 51 -19 43 0 59 -15 29 -26
-36 -14 42 -74 95 -74 15 0 33 -7 40 -15 7 -8 17 -12 24 -8 6 3 7 2 3 -2 -11
-13 61 -54 83 -48 26 7 60 -14 60 -37 0 -14 9 -21 34 -26 19 -3 39 -3 44 0 5
3 7 -6 4 -19 -3 -20 0 -25 17 -25 11 0 21 5 21 10 0 12 37 14 42 3 2 -5 20
-16 41 -25 29 -14 37 -23 37 -43 0 -15 4 -24 8 -21 5 3 24 0 43 -7 26 -9 33
-17 31 -33 -3 -20 50 -122 68 -134 5 -3 12 -29 16 -58 4 -29 11 -55 15 -58 11
-7 12 -111 1 -118 -5 -3 -9 -22 -10 -42 -1 -31 0 -34 14 -23 14 11 15 5 13
-58 -1 -38 0 -74 3 -79 7 -11 16 -76 23 -169 8 -107 12 -119 45 -134 28 -12
30 -16 30 -66 0 -78 18 -155 37 -155 10 0 14 -6 10 -19 -3 -14 0 -17 14 -14
20 6 22 -1 19 -49 -1 -16 3 -28 8 -28 6 0 8 -9 5 -20 -4 -16 -2 -19 11 -14 12
4 16 0 16 -16 0 -11 -4 -18 -10 -15 -5 3 -10 1 -10 -4 0 -6 4 -11 8 -11 12 0
35 -155 28 -185 -4 -14 -4 -25 -1 -25 4 0 38 -5 77 -11 74 -12 104 -30 104
-64 -1 -18 -7 -20 -68 -18 -40 1 -68 -2 -68 -8 0 -6 -7 -6 -17 -1 -10 5 -44
14 -77 21 l-58 13 5 44 c2 25 0 47 -5 51 -6 3 -37 7 -70 8 l-58 3 6 -49 c6
-46 5 -49 -16 -49 -19 0 -20 3 -10 15 6 8 10 20 7 27 -4 8 -6 7 -6 -4 -1 -25
-17 -23 -17 2 0 11 3 20 7 20 4 0 9 9 12 21 5 19 4 20 -12 5 -10 -9 -25 -16
-34 -16 -10 0 -17 -8 -17 -20 0 -11 5 -20 10 -20 6 0 10 5 10 12 0 6 3 8 7 5
3 -4 -3 -16 -15 -27 l-22 -21 0 46 c0 40 -3 47 -27 56 -15 6 -30 14 -33 19 -6
10 -216 70 -345 99 -143 32 -295 44 -450 37 -198 -8 -577 -60 -709 -96 -88
-24 -184 -58 -171 -60 6 -1 -19 -8 -55 -16 -218 -47 -331 -44 -571 15 -179 43
-296 57 -549 66 -195 7 -518 -12 -609 -36 -8 -3 -19 10 -27 31 l-13 35 2 -39
c2 -37 1 -39 -43 -52 -25 -8 -48 -14 -51 -14 -9 0 3 185 12 188 5 2 9 13 9 25
0 37 23 2 30 -45 3 -26 11 -42 18 -40 7 1 12 -2 12 -8 0 -5 7 -7 15 -4 10 4
15 0 15 -14 0 -11 7 -26 17 -33 15 -13 16 -11 10 11 -17 71 -19 103 -8 96 6
-4 11 -16 11 -27 0 -10 5 -19 11 -19 6 0 8 10 5 23 -3 12 -3 16 0 10 9 -20 19
-15 20 10 3 58 9 83 21 98 8 9 13 22 11 30 -2 7 5 13 14 14 9 0 26 10 38 23
11 12 29 22 40 22 10 0 22 5 25 10 3 6 23 10 43 10 l37 -1 -30 -13 c-25 -10
-26 -13 -12 -19 11 -4 16 -3 12 3 -3 6 5 10 19 10 14 0 26 4 26 9 0 8 98 15
170 13 33 -2 34 -1 16 13 -19 14 -18 15 12 15 19 0 32 5 33 13 0 6 3 7 5 2 5
-14 87 -6 97 9 5 7 13 4 26 -11 11 -13 24 -23 30 -23 6 0 11 -4 11 -9 0 -14
40 -21 65 -11 15 6 27 4 35 -3 10 -9 14 -9 17 0 3 8 26 0 70 -23 70 -36 116
-43 139 -20 13 13 10 18 -23 40 -21 15 -43 26 -50 26 -7 0 -13 3 -13 8 0 9
-58 42 -74 42 -7 0 -13 6 -13 13 0 20 77 -8 102 -37 22 -26 65 -44 65 -27 0 6
7 11 15 11 26 0 -15 48 -44 52 -14 2 -26 9 -29 16 -3 9 3 10 24 2 23 -9 46 -7
33 3 -16 13 -193 61 -229 63 -25 1 -67 2 -95 3 -41 1 -47 4 -32 12 11 6 34 8
54 4 24 -4 33 -3 28 4 -3 6 -31 11 -61 11 -30 0 -54 5 -54 10 0 6 10 10 22 10
12 0 19 3 16 6 -3 3 -50 2 -103 -2 -53 -4 -91 -10 -85 -14 7 -4 41 -5 76 -2
44 3 64 1 64 -7 0 -6 -6 -11 -12 -12 -76 -3 -235 -3 -232 0 2 2 38 16 81 31
72 26 76 29 50 35 -16 4 -46 3 -67 -4 -48 -14 -61 -14 -55 2 4 8 -9 13 -40 15
-25 1 -45 -2 -45 -7 0 -5 -17 -15 -37 -22 -21 -6 -43 -16 -49 -20 -6 -5 -19
-7 -28 -3 -18 7 -21 29 -6 39 6 3 10 17 10 31 0 27 15 60 37 82 8 8 17 28 20
44 3 16 14 33 24 39 11 5 19 17 19 25 0 8 13 27 29 42 15 15 31 38 34 52 4 14
22 43 42 65 19 22 35 46 35 53 0 6 6 12 13 12 6 0 18 14 25 30 8 17 20 30 28
30 8 0 14 4 14 9 0 16 97 111 113 111 9 0 24 16 33 36 9 20 28 40 41 45 13 5
28 20 33 34 6 15 17 25 30 25 12 0 20 7 20 16 0 19 72 90 100 99 11 4 20 12
20 19 0 16 34 48 43 41 4 -3 5 -2 2 2 -8 10 16 33 35 33 10 0 20 7 24 15 3 8
10 15 17 15 6 0 31 23 56 50 25 28 50 50 57 49 27 -3 36 2 36 21 0 11 4 20 10
20 5 0 25 14 45 31 26 23 35 27 35 15 0 -19 17 -20 53 -3 34 15 35 29 3 21
-14 -3 -30 -3 -36 1 -15 9 26 39 44 32 8 -3 36 9 62 27 27 17 64 38 82 45 17
7 32 17 32 22 0 4 17 11 38 15 20 4 46 13 57 20 23 15 187 38 215 31 11 -3 21
0 22 5 2 5 27 11 56 11 28 1 52 6 52 11 0 4 8 5 18 0 9 -4 35 -7 56 -6z m1011
-1978 c87 -13 163 -49 192 -93 66 -97 92 -372 53 -549 -37 -167 -56 -183 -280
-238 -157 -38 -329 -52 -569 -47 -233 5 -281 12 -385 56 -134 58 -259 283
-273 492 -9 140 20 201 120 248 128 60 367 109 692 141 103 10 347 5 450 -10z
m-2207 -32 c67 -6 124 -14 127 -18 2 -3 -22 -3 -53 2 -31 5 -192 9 -357 10
-285 1 -408 -7 -554 -38 -18 -4 -21 -3 -11 4 85 51 510 71 848 40z m-138 -48
c226 -19 405 -52 470 -85 35 -18 85 -74 99 -112 19 -47 18 -170 -1 -223 -9
-25 -21 -80 -27 -121 -17 -125 -69 -216 -159 -283 -90 -65 -285 -99 -567 -97
-122 1 -190 8 -405 37 -25 4 -50 11 -57 16 -7 5 -16 7 -21 4 -11 -6 -100 77
-125 116 -45 72 -83 307 -75 468 4 88 8 105 34 147 46 73 109 98 324 127 118
16 357 19 510 6z"/>
<path d="M5429 12089 c-10 -6 -10 -9 -1 -9 6 0 12 -7 12 -15 0 -16 -35 -21
-44 -6 -3 5 -22 9 -41 9 -40 0 -38 -11 7 -34 19 -10 27 -19 21 -25 -13 -13
-64 7 -84 33 -20 26 -49 18 -50 -14 -1 -17 -2 -19 -6 -5 -6 23 -23 12 -23 -15
0 -15 -3 -18 -12 -10 -7 6 -24 12 -38 15 -18 3 -17 4 6 3 21 -1 30 2 27 10 -7
19 -28 24 -60 15 -21 -6 -27 -13 -25 -31 2 -19 -1 -21 -20 -15 -13 4 -39 8
-58 10 -20 1 -23 0 -7 -2 57 -9 24 -20 -60 -21 -140 -2 -183 -5 -183 -13 0 -4
10 -10 23 -12 14 -3 8 -5 -15 -6 -20 0 -39 -5 -42 -10 -3 -5 -16 -11 -28 -14
-20 -6 -19 -4 6 18 34 29 29 31 -21 10 -19 -8 -44 -15 -54 -15 -11 0 -19 -4
-19 -9 0 -5 -11 -12 -24 -15 -14 -3 -28 -16 -32 -28 -4 -13 -14 -29 -23 -36
-9 -8 -10 -11 -3 -7 8 4 12 -2 12 -20 0 -15 5 -35 10 -46 9 -15 7 -21 -5 -25
-22 -9 -19 -18 15 -33 20 -8 35 -10 43 -3 7 5 29 12 50 16 20 4 37 10 37 14 0
4 32 5 71 4 68 -4 70 -3 67 19 -4 26 26 34 78 20 23 -6 55 -5 101 4 108 21
144 25 138 14 -8 -12 12 -11 37 2 11 6 39 13 62 15 82 7 175 27 170 36 -3 5
-12 7 -20 4 -7 -3 -16 -1 -19 4 -4 6 1 10 10 10 28 0 105 -22 101 -29 -3 -4
12 -5 31 -3 l37 5 -30 14 c-16 8 -46 26 -66 40 -27 19 -45 24 -65 19 l-28 -6
27 15 c26 15 31 14 81 -15 30 -16 60 -30 68 -30 8 0 21 -5 29 -10 13 -9 13
-11 0 -21 -13 -9 -13 -10 0 -6 8 2 27 -2 43 -10 24 -12 27 -12 27 2 0 8 -7 15
-15 15 -8 0 -15 5 -15 10 0 6 -19 19 -43 29 -24 10 -50 25 -58 33 -8 8 -28 20
-44 26 -27 9 -28 10 -7 11 13 1 38 -9 55 -21 19 -13 32 -18 34 -11 2 6 15 0
29 -14 16 -16 32 -23 45 -20 10 3 22 1 25 -4 3 -5 -3 -9 -12 -9 -16 0 -16 -2
2 -18 21 -19 104 -62 121 -62 6 0 22 -10 37 -21 43 -34 41 -15 -3 27 -26 24
-37 40 -29 45 11 7 -39 43 -95 67 -15 7 -25 17 -22 22 4 6 -6 10 -22 10 -21 0
-24 3 -13 10 13 8 12 10 -1 15 -9 3 -20 5 -25 4 -21 -4 -35 2 -28 12 4 8 9 7
15 -2 6 -9 9 -10 9 -2 0 6 -15 21 -34 32 -36 23 -51 27 -41 11 3 -5 1 -10 -4
-10 -6 0 -11 7 -11 16 0 14 -2 15 -16 3 -15 -12 -16 -11 -10 9 5 13 3 22 -3
22 -6 0 -11 -4 -11 -10 0 -5 -5 -10 -11 -10 -6 0 -9 6 -6 14 7 18 -15 27 -34
15z"/>
<path d="M4845 11365 c-66 -25 -145 -108 -145 -153 0 -24 26 -49 32 -31 3 10
17 10 63 1 71 -15 85 -15 85 -2 0 6 -9 10 -19 10 -10 0 -29 8 -41 18 -20 16
-21 21 -10 43 17 33 51 69 65 69 7 0 15 -19 18 -42 4 -31 14 -51 36 -70 17
-15 31 -32 31 -38 0 -13 -26 -13 -52 1 -16 9 -19 8 -16 -2 5 -16 102 -42 106
-29 2 6 10 10 18 10 9 0 13 -4 10 -9 -9 -14 21 -21 92 -20 l67 1 -45 9 c-25 5
-53 6 -62 3 -10 -3 -18 -1 -18 4 0 6 12 13 26 16 33 9 54 25 94 76 l19 25 1
-22 c0 -16 6 -23 20 -23 11 0 20 -4 20 -10 0 -5 17 -12 38 -15 111 -18 130
-25 130 -51 0 -25 -22 -33 -32 -11 -5 10 -7 10 -12 0 -3 -7 -23 -13 -45 -13
-21 0 -39 -4 -39 -10 0 -5 20 -10 45 -10 33 0 50 -6 62 -20 12 -13 20 -16 29
-9 6 5 57 12 113 16 80 5 104 10 117 24 10 11 22 19 29 19 7 0 9 13 7 35 -4
31 -1 35 18 35 12 0 30 -5 41 -10 17 -10 19 -7 19 24 0 29 -3 33 -20 29 -11
-3 -20 -9 -20 -14 0 -13 -96 -10 -166 5 -70 15 -87 23 -78 38 5 7 -3 9 -22 5
-20 -4 -46 2 -81 20 -29 14 -69 29 -90 35 -207 53 -368 69 -438 43z"/>
<path d="M4280 11137 c0 -46 42 -184 81 -264 43 -90 92 -153 118 -153 10 0 12
3 5 8 -16 10 -33 71 -49 182 -18 121 -18 113 5 140 16 18 29 70 17 70 -1 0
-17 -4 -34 -9 -20 -6 -35 -6 -38 0 -9 14 -25 11 -25 -5 0 -7 10 -21 23 -29 12
-9 18 -16 12 -16 -14 -1 -95 75 -95 88 0 6 -4 11 -10 11 -5 0 -10 -10 -10 -23z"/>
<path d="M2513 11380 c-15 -6 -23 -18 -23 -32 0 -13 -4 -30 -10 -38 -6 -9 -5
-17 2 -21 6 -4 16 -23 23 -43 l12 -35 -75 5 c-42 3 -79 7 -84 10 -13 8 -21
-45 -9 -60 7 -8 35 -24 64 -35 50 -20 55 -21 90 -6 23 9 38 23 41 38 7 31 26
186 26 209 0 20 -21 23 -57 8z"/>
<path d="M3165 11364 c-210 -51 -288 -88 -398 -186 -32 -29 -36 -36 -25 -51
12 -16 17 -16 76 4 49 17 69 19 85 11 27 -13 77 -13 77 0 0 6 -9 12 -20 15
-11 3 -20 9 -20 13 0 5 9 12 20 15 11 3 20 15 20 25 0 20 63 80 84 80 7 0 18
-18 25 -40 10 -34 51 -85 92 -115 8 -6 24 -9 37 -7 12 2 22 -2 22 -9 0 -8 5
-7 18 3 23 21 102 20 102 -1 0 -12 3 -12 12 -3 7 7 20 12 30 12 10 0 18 5 18
10 0 6 6 10 14 10 8 0 17 6 19 13 3 6 6 3 6 -7 1 -20 1 -20 16 0 8 10 14 28
14 39 l0 20 -9 -20 c-7 -18 -8 -19 -15 -2 -4 9 -2 23 3 30 15 18 -49 88 -105
116 -41 20 -156 35 -198 25z"/>
<path d="M6561 9759 c-42 -50 -73 -66 -142 -76 -57 -9 -109 -6 -92 5 7 5 6 11
-3 20 -8 7 -14 8 -14 2 0 -5 -4 -10 -10 -10 -5 0 -10 7 -10 15 0 8 -4 15 -8
15 -8 0 -33 -186 -34 -257 -1 -18 -5 -30 -10 -27 -4 3 -8 2 -9 -3 -7 -56 -6
-89 2 -99 6 -8 7 -54 2 -131 -10 -151 -10 -148 5 -145 6 1 12 -2 12 -8 0 -5 5
-10 10 -10 6 0 10 7 10 15 0 8 -4 15 -9 15 -5 0 -12 7 -15 16 -3 8 -2 12 4 9
14 -9 12 9 -2 24 -11 11 -9 12 7 4 11 -6 27 -8 35 -6 13 4 13 3 1 -5 -12 -9
-13 -13 -1 -27 10 -13 15 -13 21 -3 5 7 6 22 3 32 -6 17 -4 17 10 5 9 -8 28
-25 42 -39 l26 -25 -7 24 c-5 16 -4 21 4 17 15 -10 14 7 -1 23 -11 10 -9 11 5
5 15 -5 17 -13 12 -40 -3 -21 -2 -34 5 -34 5 0 10 9 10 20 0 11 7 20 15 20 8
0 15 7 15 15 0 8 -4 15 -10 15 -5 0 -10 14 -10 32 0 25 3 29 12 20 7 -7 19
-12 27 -12 10 0 8 7 -10 26 -17 18 -19 23 -6 18 22 -8 22 5 0 22 -16 12 -16
15 -3 24 8 5 11 10 6 10 -5 0 -3 7 4 15 7 8 17 12 23 8 6 -4 8 3 4 19 -4 15
-1 32 7 44 14 18 15 18 35 0 12 -11 21 -17 21 -14 0 17 -33 81 -51 99 -27 27
-20 42 13 25 15 -8 29 -12 32 -9 3 3 12 0 21 -7 21 -18 31 -5 11 15 -28 28
-15 50 13 23 11 -11 12 -9 6 10 -7 24 4 29 23 10 7 -7 12 -8 13 -2 0 5 2 19 5
31 3 17 -2 24 -21 29 -24 6 -35 24 -15 24 5 0 7 7 4 15 -7 17 7 20 23 4 7 -7
9 -3 5 17 -3 19 -2 25 7 19 9 -5 9 -2 0 13 -18 29 -4 39 23 16 22 -19 23 -19
8 1 -8 11 -21 25 -29 31 -8 6 -11 18 -8 28 6 16 -18 67 -32 65 -3 0 -21 -19
-40 -40z"/>
<path d="M4071 9643 c7 -8 3 -16 -12 -26 -11 -9 -18 -20 -14 -26 4 -7 -3 -11
-17 -11 -24 1 -62 27 -69 48 -3 10 -9 9 -24 -2 -18 -14 -18 -15 -2 -16 9 0 17
-4 17 -10 0 -15 -16 -12 -30 5 -7 8 -22 15 -34 15 -17 0 -18 -2 -6 -10 12 -8
9 -10 -12 -10 -16 0 -28 4 -28 10 0 15 -32 -1 -62 -32 -15 -15 -36 -28 -47
-28 -11 0 -23 -4 -26 -10 -4 -6 7 -10 24 -10 17 0 31 -4 31 -9 0 -11 -59 -20
-91 -14 -21 4 -25 9 -21 29 2 13 11 24 18 24 8 0 14 7 14 16 0 14 -8 16 -42
11 -23 -3 -47 -13 -54 -21 -6 -9 -18 -16 -27 -16 -9 0 -19 -4 -22 -10 -3 -5
-15 -10 -26 -10 -10 0 -19 -4 -19 -9 0 -11 -17 -17 -71 -26 -27 -5 -40 -2 -54
11 -13 14 -34 19 -73 19 -55 0 -55 0 -55 -30 1 -62 35 -107 48 -64 6 19 25 25
39 12 8 -8 77 -33 93 -33 6 0 24 -6 40 -12 30 -14 223 -18 223 -5 0 4 10 7 23
7 13 0 29 6 35 12 10 10 15 10 21 -1 7 -11 15 -11 41 -2 38 13 50 14 33 3 -6
-4 11 -7 38 -7 27 0 49 3 49 7 0 12 104 0 115 -14 14 -18 49 -17 56 2 3 9 20
16 40 17 19 1 66 5 106 9 59 5 75 4 88 -10 21 -21 45 -21 45 0 0 12 6 15 23
10 12 -4 41 -10 65 -13 33 -4 42 -10 42 -25 0 -13 4 -17 13 -11 13 8 70 11
250 13 105 1 109 2 152 33 46 34 78 87 89 150 6 35 5 37 -18 37 -13 0 -26 5
-28 11 -5 16 -106 -7 -131 -30 -25 -22 -195 -27 -235 -8 -15 8 -33 12 -39 10
-7 -3 -35 3 -63 12 -27 9 -59 14 -70 10 -11 -4 -20 -2 -20 4 0 15 -53 14 -68
-1 -9 -9 -12 -8 -12 4 0 12 -15 17 -67 22 -140 12 -192 12 -182 -1z"/>
<path d="M4282 9198 c-11 -11 -159 -21 -293 -18 -31 0 -68 -4 -83 -10 -26 -10
-27 -11 -10 -33 14 -18 25 -21 56 -19 25 3 51 -3 77 -16 26 -14 42 -17 49 -10
5 5 56 12 113 14 57 3 115 7 128 10 l23 5 -21 18 c-16 14 -20 26 -15 45 7 28
-4 34 -24 14z"/>
<path d="M5882 8812 c-24 -2 -58 -12 -75 -23 -20 -12 -50 -19 -79 -19 -41 0
-48 -3 -48 -20 0 -27 -14 -25 -34 4 -15 24 -56 33 -56 13 0 -12 -131 1 -144
14 -6 5 -31 9 -57 9 -39 0 -49 -4 -54 -20 -7 -22 -40 -44 -54 -35 -5 3 -7 -4
-4 -14 7 -26 -29 -37 -68 -21 -33 14 -96 7 -140 -16 -28 -14 -39 -34 -19 -34
19 0 10 -42 -12 -61 -15 -12 -39 -18 -71 -19 -49 0 -87 -13 -87 -30 0 -9 -6
-17 -56 -78 l-20 -25 -22 23 -21 23 -32 -28 c-30 -25 -39 -27 -101 -23 -51 3
-68 0 -68 -9 0 -20 -100 -17 -115 3 -6 9 -24 17 -39 17 -15 0 -35 -8 -44 -17
-15 -15 -14 -16 8 -16 43 0 7 -18 -60 -30 -36 -6 -73 -11 -82 -10 -49 2 -82 0
-187 -9 -63 -6 -117 -14 -120 -19 -6 -8 -11 -9 -102 -11 -52 -1 -60 -3 -49
-15 9 -12 6 -16 -22 -21 -18 -3 -58 -3 -88 0 -58 7 -121 7 -183 2 -30 -2 -40
2 -53 20 -8 13 -19 21 -23 18 -5 -2 -14 2 -21 10 -7 8 -19 15 -26 15 -8 0 -14
4 -14 8 0 10 -91 55 -97 48 -3 -2 19 -18 49 -35 73 -42 88 -52 118 -81 15 -14
31 -26 36 -27 16 -3 16 -23 0 -23 -13 0 -15 -6 -10 -27 4 -16 9 -32 13 -38 3
-5 7 -19 8 -29 5 -28 13 -33 13 -8 0 12 5 22 10 22 6 0 10 -9 10 -19 0 -10 7
-21 15 -25 8 -3 15 -12 15 -21 0 -8 4 -15 9 -15 16 0 71 -60 71 -77 0 -17 28
-42 46 -43 7 0 14 9 17 20 3 11 12 20 21 20 18 0 21 -15 6 -25 -20 -12 -9 -24
28 -31 20 -4 43 -15 50 -26 7 -10 20 -18 29 -18 15 0 69 -40 68 -51 -1 -18 33
-39 81 -50 30 -7 54 -17 54 -23 0 -6 15 -17 33 -24 17 -7 39 -17 47 -22 48
-29 103 -51 165 -66 38 -9 75 -23 83 -30 7 -8 27 -14 43 -14 22 0 29 -5 29
-20 0 -14 9 -21 38 -26 20 -4 39 -10 42 -13 9 -11 93 -33 139 -36 24 -1 46 -7
50 -13 3 -5 16 -12 29 -16 19 -6 22 -4 22 18 0 16 6 26 14 26 22 0 29 -18 9
-22 -13 -3 -6 -10 25 -26 23 -12 42 -21 42 -18 0 2 16 0 34 -4 30 -7 35 -5 38
12 3 20 3 20 28 0 15 -12 24 -30 25 -47 0 -16 6 -30 14 -33 10 -3 12 1 8 17
-4 17 -1 21 20 21 15 0 22 -4 17 -11 -7 -12 12 -29 34 -29 6 0 12 10 12 21 0
21 1 21 26 4 14 -9 32 -14 40 -11 8 3 14 1 14 -4 0 -12 50 -13 69 -1 7 5 10
14 7 20 -5 7 5 11 29 11 22 0 34 -4 30 -10 -3 -5 -14 -10 -23 -10 -12 0 -13
-3 -4 -12 13 -13 92 6 92 22 0 6 9 10 20 10 13 0 20 7 20 20 0 14 7 20 23 20
12 0 32 6 43 14 11 8 37 17 57 21 36 7 52 25 22 25 -12 0 -15 14 -15 70 0 56
3 70 15 70 8 0 15 -9 15 -19 0 -33 32 -35 57 -4 13 15 38 44 55 63 l33 35 -32
3 c-31 3 -33 6 -33 42 0 21 -6 41 -12 43 -10 4 -10 6 0 6 6 1 12 10 12 21 0
12 7 20 16 20 12 0 15 6 11 21 -4 16 2 30 24 50 35 33 36 39 7 39 -25 1 -58
22 -58 37 0 5 17 14 38 19 28 7 38 15 40 33 2 13 10 31 19 39 11 12 14 38 12
121 -2 93 -1 106 14 109 19 4 23 27 7 37 -7 4 -7 12 0 25 5 10 10 26 10 35 0
10 11 26 25 37 14 11 35 39 47 61 11 23 27 46 34 50 17 10 18 37 2 37 -7 0 -6
5 3 13 9 6 23 24 32 40 10 15 26 27 37 27 17 0 18 3 8 26 -10 21 -9 27 2 34
24 15 -1 25 -48 22z"/>
<path d="M6210 8040 c0 -11 -4 -20 -10 -20 -5 0 -7 -7 -3 -15 3 -10 1 -15 -8
-13 -8 2 -15 -11 -19 -32 -4 -19 -15 -51 -25 -70 -11 -19 -18 -38 -17 -42 1
-5 -1 -8 -6 -8 -4 0 -13 -12 -19 -27 -21 -47 -167 -189 -218 -212 -16 -8 -25
-16 -18 -18 19 -7 116 63 214 157 44 42 71 81 113 162 30 59 53 116 51 125 -2
10 -4 21 -4 26 -2 17 -31 5 -31 -13z"/>
<path d="M6345 7904 c19 -82 1 -135 -96 -282 -27 -40 -49 -77 -49 -82 0 -5 -4
-10 -8 -12 -4 -1 -39 -48 -77 -103 -37 -55 -104 -152 -147 -215 -44 -63 -109
-158 -144 -210 -35 -52 -87 -126 -114 -165 -57 -81 -129 -188 -175 -260 -18
-27 -61 -95 -97 -150 -36 -55 -73 -113 -82 -130 -9 -16 -28 -48 -41 -70 -14
-22 -30 -49 -35 -60 -6 -11 -28 -49 -51 -85 -49 -77 -231 -395 -290 -507 -23
-43 -45 -82 -49 -88 -4 -5 -13 -26 -20 -45 -8 -19 -45 -100 -82 -178 -37 -79
-68 -146 -68 -149 0 -3 -31 -72 -70 -154 -38 -82 -102 -218 -141 -301 -39 -84
-91 -195 -115 -246 -24 -51 -44 -95 -44 -97 0 -2 -21 -48 -46 -102 -25 -54
-93 -206 -151 -338 -263 -600 -358 -824 -524 -1245 -38 -96 -78 -195 -89 -220
-10 -25 -44 -112 -75 -194 -63 -170 -79 -202 -70 -141 3 22 10 76 16 120 6 44
14 87 17 95 3 8 7 31 7 50 4 74 4 76 16 60 9 -13 10 -12 5 3 -3 9 -1 28 4 41
5 13 16 59 25 103 22 105 23 108 25 108 1 0 3 11 6 25 2 14 11 48 19 75 8 28
35 122 60 210 48 167 83 284 140 470 19 61 50 164 70 230 20 66 56 181 80 255
94 292 155 542 171 699 7 71 9 77 73 162 36 48 76 107 87 131 12 24 43 86 68
138 30 63 64 114 99 150 112 117 186 217 222 300 22 51 61 90 90 90 16 1 11 9
-25 41 -25 22 -70 58 -100 79 -30 21 -64 46 -75 57 -42 39 -103 83 -116 83 -7
0 -20 -7 -30 -16 -16 -14 -24 -14 -91 -1 -40 9 -107 19 -148 23 -91 8 -135 22
-74 23 22 1 44 5 50 10 23 22 107 61 131 61 25 0 24 2 -18 40 -24 22 -47 40
-51 40 -5 0 -26 16 -48 36 -31 28 -44 34 -62 28 -13 -3 -25 -10 -28 -13 -3 -4
-38 -18 -78 -31 -41 -13 -80 -32 -87 -43 -8 -11 -14 -14 -17 -7 -4 13 -118
-94 -118 -110 0 -5 -7 -10 -15 -10 -18 0 -20 36 -4 77 5 15 33 52 62 81 49 49
51 53 29 58 -12 4 -22 13 -22 21 0 20 -60 10 -76 -12 -6 -8 -16 -15 -22 -15
-14 0 -116 -61 -120 -72 -2 -4 -8 -8 -13 -8 -6 0 -35 -19 -66 -42 -30 -24 -65
-50 -77 -58 -37 -26 -42 -34 -60 -90 -10 -30 -25 -71 -32 -90 -7 -19 -16 -51
-19 -70 -11 -68 -38 -176 -56 -228 -11 -29 -19 -79 -19 -112 0 -32 -5 -62 -11
-65 -15 -10 -21 0 -21 30 0 26 -12 33 -22 13 -4 -7 -3 16 1 52 3 36 7 97 9
135 1 39 16 131 32 205 17 74 34 153 37 175 12 78 80 357 110 454 13 42 31
121 40 176 10 55 26 132 36 170 31 119 52 345 31 345 -4 0 -32 -48 -62 -107
l-55 -106 -170 -69 c-93 -38 -217 -88 -275 -112 -58 -24 -154 -64 -215 -89
-105 -43 -266 -116 -457 -206 -49 -22 -125 -58 -170 -80 -46 -21 -154 -73
-241 -115 -86 -42 -181 -86 -209 -97 -29 -11 -57 -24 -63 -29 -5 -4 -91 -38
-189 -75 -180 -66 -301 -120 -312 -136 -3 -5 -43 -30 -90 -56 -201 -112 -315
-289 -418 -648 -9 -33 -21 -69 -25 -80 -43 -101 -80 -250 -97 -388 -8 -65 -24
-142 -36 -170 -82 -206 -110 -365 -109 -614 l1 -172 -49 -173 c-27 -95 -62
-218 -76 -273 -15 -55 -38 -138 -50 -185 -13 -47 -34 -121 -47 -165 l-23 -80
-3 -1392 -2 -1393 4935 0 4935 0 -2 2632 -3 2632 -50 38 c-78 59 -389 250
-505 309 -58 30 -107 56 -110 59 -3 3 -36 20 -75 38 -117 56 -378 216 -523
322 -205 148 -264 186 -457 291 -44 23 -112 68 -151 98 -39 31 -114 86 -165
123 -52 38 -107 80 -124 94 -45 39 -135 89 -220 123 -41 17 -105 50 -142 74
-111 71 -145 91 -197 112 -33 14 -52 28 -56 42 -3 12 -32 50 -66 85 -33 35
-78 85 -99 113 -39 52 -130 158 -179 210 -81 84 -155 202 -266 419 -34 66
-108 146 -136 146 -10 0 -10 -11 1 -56z m-3049 -2713 c-3 -58 -13 -132 -21
-165 -14 -58 -13 -58 11 -81 24 -22 24 -25 11 -52 -8 -15 -31 -77 -53 -138
-30 -88 -47 -120 -84 -160 -25 -27 -74 -94 -110 -147 -36 -53 -66 -95 -67 -94
-2 2 7 25 18 52 49 110 200 603 244 793 30 131 34 140 48 116 6 -11 7 -59 3
-124z"/>
<path d="M3560 7118 c0 -63 80 -288 126 -357 16 -24 38 -58 50 -77 39 -64 39
-42 0 34 -16 31 -66 177 -66 193 0 6 -12 41 -26 77 -14 37 -30 80 -36 95 -8
21 -13 25 -19 15 -8 -12 -14 26 -10 60 1 6 -3 12 -9 12 -6 0 -10 -23 -10 -52z"/>
</g>
</svg>
